<svg xmlns="http://www.w3.org/2000/svg" data-name="Layer 1" viewBox="0 0 533.86 529.33"><path fill="#3f0a25" d="M379.07 469.19c-21.07 43.02-63.74 59.83-110.93 60.14-47.29.32-91.22-15.6-112.62-59.98l-90.87-.16-.02-91.15C21.6 357.07.12 313.47 0 266.12c-.12-47.25 20.71-91.37 64.54-112.77l.18-91.28h90.64C176.36 18.59 219.87-.05 267.17 0c47.5.05 90.8 18.59 111.7 62.06l90.53.04.07 91.15c43.33 21 64.22 64.57 64.38 111.91.17 47.66-20.74 91.83-64.41 112.95l-.02 91.11-90.36-.03Z"/><path fill="#841a36" d="m451.57 163.54-.06-82.53-82.42-.04c-18.38-37.13-56.41-59.29-101.94-59.34h-.16c-45.4 0-83.4 22.15-101.89 59.35H82.58l-.16 82.65c-37.73 18.73-60.15 56.92-60.03 102.35.12 45.08 22.57 82.98 60.11 101.58v82.53l82.74.15c18.21 36.71 55.2 57.67 101.75 57.67h1.04c46.03-.31 82.87-21.36 101.22-57.81l82.27.03.02-82.49c37.69-18.55 60.07-56.8 59.91-102.52-.16-45.26-22.52-83.15-59.89-101.58ZM167.05 84.09l.43-.88c17.79-36.62 54.98-58.47 99.51-58.47h.16c44.67.05 81.9 21.91 99.57 58.46l.43.88 79.05.03-17.86 17.88-70.83-.03c-17.1-34.54-51.63-55.97-90.36-56.02h-.12c-38.61 0-73.13 21.43-90.33 56.02h-70.92L87.9 84.08zm261.28 269.57-.88.42v71.93l-71.73-.02-.43.87c-16.64 33.8-50.12 54.96-87.38 55.2-38.15.28-72.12-20.85-88.71-55.07l-.43-.88-72.14-.13v-71.96l-.89-.43a97 97 0 0 1-55.12-87.67c-.1-37.95 20.99-71.8 55.05-88.34l.88-.43.14-72.06h71.95l.43-.89c16.53-34.02 50.22-55.14 87.95-55.14h.12c37.85.04 71.56 21.17 87.98 55.14l.43.88 71.58.03.29.29.06 71.68.88.43a97 97 0 0 1 55.25 87.67c.13 37.54-21.56 72.27-55.27 88.48ZM25.51 265.98c-.11-44.56 22-81.93 59.15-99.97l.88-.43.15-79.28 17.88 17.89-.14 71.03c-34.62 17.22-56.03 51.89-55.93 90.72a100.1 100.1 0 0 0 56 90.03v70.93l-17.87 17.88v-79.16l-.89-.43c-36.98-17.91-59.12-55-59.24-99.21Zm341.82 181-.43.87c-17.67 35.88-53.71 56.63-98.88 56.94-46.07.3-82.74-20.39-100.39-56.79l-.43-.88-79.36-.14 17.89-17.88 71.1.13c17.17 34.59 51.67 55.95 90.4 55.95h.7c38.12-.25 72.41-21.71 89.72-56.07l70.7.03 17.86 17.88zm81.99-81.72-.88.42v79.12l-17.88-17.88v-70.89c34.29-16.91 56.3-52.46 56.17-90.87a100.1 100.1 0 0 0-56.14-90.03l-.05-70.92 17.86-17.89.06 79.16.88.43c36.79 17.74 58.85 54.82 59.01 99.21.16 44.85-21.91 82.28-59.03 100.13Z"/><g fill="#c7ae9a"><path d="m179.56 347.25 10.54.07v18.83c-9.28-.08-17.56-3.64-23.37-10.06-5.74-6.34-8.42-14.78-7.53-23.77a31.2 31.2 0 0 1 10.02-20.14 31.6 31.6 0 0 1 21.21-8.04h.3l.09-7.05h-.51a38.5 38.5 0 0 0-25 9.13 38 38 0 0 0-12.91 23.44c-1.59 10.77 1.09 21.18 7.57 29.31 6.51 8.18 16.13 13.16 27.09 14.03 1.67.13 3.25.17 4.91.17l3-.03 1.65-.02h.3l.01-31.29h-17.34zm49.28-47.61a14.8 14.8 0 0 0-18.47-.36c-2.32 1.79-3.71 4.34-3.74 6.82l-.33 32.78v34.29h7.21l.24-46.13 11.19.03.28 46.06 7.35-.03-.25-65.72c-.01-3.32-1.15-5.85-3.47-7.74Zm-3.87 21.95h-11.16l.26-15.15q.05-1.65 1.07-2.64c.89-.85 2.31-1.3 4.1-1.3h.28c2.44.06 5.35.87 5.37 4.37zm62.46-23.25h-4.24v59.63h4.24c8.46 0 15.54-2.98 20.46-8.61 4.68-5.35 7.16-12.7 7.16-21.26s-2.48-15.89-7.16-21.21c-4.92-5.59-12-8.55-20.46-8.55m2.55 52.94v-46.26c5.24.19 9.74 2.43 13.02 6.51 3.37 4.18 5.15 9.91 5.15 16.56s-1.78 12.46-5.15 16.66a17 17 0 0 1-13.02 6.52Zm54.81-46.99v-5.95H323.5v53.55h21.29v-5.95h-14.5v-24.71h9.78v-5.85h-9.78v-11.09zm33.07 8.8-21.19-15.81h-1.14v75.38h6.93v-62.89l15.4 11.55v51.34h6.93v-74.33h-6.93z"/><path d="m304.87 366.56-1.34.53c-7.86 3.1-16.77 6.61-28.77 1.11-7.49-3.43-11.27-12.68-12.59-16.64a29 29 0 0 0 12.43-19.75c.83-5.32.29-10.73-1.54-15.66-1.86-5-5.03-9.4-9.16-12.72-5.92-4.77-13.48-7.12-21.86-6.8h-.29v76.53l7.51.04.02-16.32c.54-.08.86-.17 1.28-.29l.79-.21q.46-.12.91-.29l3.89-1.52c1.87 5.27 6.54 15.43 15.84 19.69a36 36 0 0 0 15.27 3.51q2.04 0 4.1-.25c5.58-.67 10.39-2.56 14.62-4.23l1.32-.52c17.86-6.97 25.37-4.12 35.62 1.39l3.16-5.87c-5.2-2.8-10.41-5.37-17.01-6.09-6.94-.76-14.62.63-24.18 4.36Zm-37.44-40.32c.37 11.36-7.08 20.75-18.16 22.97v-44.85a22.8 22.8 0 0 1 18.16 21.88m-109.88-46.48c15.79 0 26.95-6.79 32.41-19.67 5.46 12.88 16.63 19.67 32.41 19.67h2.13l7.41-129.6h-8.74l-6.96 120.99c-7.36-.74-12.97-4.18-16.68-10.22-3.45-5.63-5.21-13.33-5.21-22.89v-87.88h-8.74v87.88c0 9.56-1.75 17.26-5.21 22.89-3.71 6.04-9.32 9.48-16.68 10.22l-6.96-120.99h-8.74l7.41 129.6h2.13Zm93.66-129.6h8.74v129.6h-8.74zm39.28 13.83 27.89 20.74v95.03h8.74v-129.6h-8.74v24.02l-34.77-25.85h-1.86v131.43h8.74zm95.74-5.09v-8.74h-37.12v129.6h37.12v-8.74h-28.39v-71.83h21.6v-8.74h-21.6V158.9z"/></g></svg>